<svg width="80.000000" height="80.000000" viewBox="0 0 80 80" fill="none" xmlns="http://www.w3.org/2000/svg" xmlns:xlink="http://www.w3.org/1999/xlink">
	<desc>
			Created with Pixso.
	</desc>
	<defs>
		<clipPath id="clip5_2">
			<rect width="80.000000" height="80.000000" fill="white" fill-opacity="0"/>
		</clipPath>
	</defs>
	<rect width="80.000000" height="80.000000" fill="#FFFFFF" fill-opacity="0"/>
	<g clip-path="url(#clip5_2)">
		<path d="M53.38 4.62C53.57 4.62 53.75 4.58 53.93 4.5C54.31 4.33 54.7 4.17 55.09 4.02C55.78 3.76 56.12 2.99 55.86 2.3C55.6 1.61 54.83 1.27 54.14 1.52C53.7 1.69 53.27 1.87 52.84 2.07C52.17 2.37 51.86 3.16 52.17 3.83C52.39 4.32 52.87 4.62 53.38 4.62Z" fill="#D4C17F" fill-opacity="1.000000" fill-rule="nonzero"/>
		<path d="M53.33 33.53C54.07 33.53 54.66 32.94 54.66 32.2L54.66 31.97C54.66 31.62 54.68 31.27 54.73 30.94C54.82 30.2 54.31 29.54 53.58 29.44C52.83 29.34 52.18 29.86 52.08 30.59C52.03 31.04 51.99 31.5 51.99 31.97L51.99 32.2C52 32.94 52.59 33.53 53.33 33.53Z" fill="#D4C17F" fill-opacity="1.000000" fill-rule="nonzero"/>
		<path d="M46.66 33.86C47.4 33.86 47.99 33.26 47.99 32.53L47.99 31.17C47.99 30.44 47.4 29.84 46.66 29.84C45.92 29.84 45.33 30.44 45.33 31.17L45.33 32.53C45.33 33.26 45.92 33.86 46.66 33.86Z" fill="#D4C17F" fill-opacity="1.000000" fill-rule="nonzero"/>
		<path d="M54.32 12.77C53.89 13.01 53.47 13.26 53.06 13.53C52.45 13.94 52.29 14.77 52.7 15.38C52.95 15.77 53.38 15.98 53.81 15.98C54.06 15.98 54.32 15.9 54.55 15.75C54.89 15.52 55.24 15.31 55.6 15.11C56.25 14.75 56.48 13.94 56.13 13.3C55.77 12.65 54.96 12.42 54.32 12.77Z" fill="#D4C17F" fill-opacity="1.000000" fill-rule="nonzero"/>
		<path d="M35.41 12.64C35.66 13.04 36.09 13.26 36.54 13.26C36.78 13.26 37.02 13.2 37.24 13.06C37.87 12.66 38.06 11.84 37.66 11.22C37.41 10.82 37.15 10.43 36.88 10.04C36.45 9.44 35.62 9.3 35.02 9.73C34.42 10.16 34.28 11 34.71 11.59C34.95 11.93 35.18 12.28 35.41 12.64Z" fill="#D4C17F" fill-opacity="1.000000" fill-rule="nonzero"/>
		<path d="M59.78 2.82C59.84 2.82 59.9 2.81 59.95 2.81C60.36 2.75 60.78 2.71 61.2 2.68C61.94 2.64 62.49 2 62.44 1.27C62.4 0.53 61.75 -0.02 61.03 0.02C60.55 0.06 60.08 0.1 59.62 0.16C58.89 0.25 58.37 0.92 58.46 1.65C58.55 2.32 59.12 2.82 59.78 2.82Z" fill="#D4C17F" fill-opacity="1.000000" fill-rule="nonzero"/>
		<path d="M54.84 24.72C54.34 25.26 54.37 26.1 54.91 26.6C55.17 26.84 55.49 26.96 55.82 26.96C56.18 26.96 56.53 26.81 56.8 26.53C57.07 26.23 57.38 25.95 57.7 25.69C58.28 25.23 58.38 24.39 57.92 23.82C57.46 23.24 56.62 23.14 56.04 23.6C55.61 23.94 55.21 24.32 54.84 24.72Z" fill="#D4C17F" fill-opacity="1.000000" fill-rule="nonzero"/>
		<path d="M42.75 13.06C42.97 13.2 43.21 13.26 43.45 13.26C43.9 13.26 44.33 13.04 44.58 12.64C44.81 12.28 45.04 11.93 45.28 11.59C45.71 11 45.57 10.16 44.97 9.73C44.37 9.3 43.54 9.44 43.11 10.04C42.84 10.43 42.58 10.82 42.33 11.22C41.94 11.84 42.12 12.66 42.75 13.06Z" fill="#D4C17F" fill-opacity="1.000000" fill-rule="nonzero"/>
		<path d="M53.33 39.97C54.07 39.97 54.66 39.37 54.66 38.64L54.66 37.97C54.66 37.23 54.07 36.64 53.33 36.64C52.59 36.64 52 37.23 52 37.97L52 38.64C52 39.37 52.59 39.97 53.33 39.97Z" fill="#D4C17F" fill-opacity="1.000000" fill-rule="nonzero"/>
		<path d="M46.63 27.09C46.7 27.1 46.76 27.1 46.82 27.1C47.47 27.1 48.04 26.61 48.14 25.94C48.19 25.53 48.26 25.13 48.35 24.73C48.52 24.01 48.07 23.3 47.35 23.13C46.63 22.97 45.92 23.42 45.75 24.14C45.65 24.62 45.56 25.1 45.49 25.59C45.39 26.32 45.91 26.99 46.63 27.09Z" fill="#D4C17F" fill-opacity="1.000000" fill-rule="nonzero"/>
		<path d="M37.56 17.17C37.69 17.57 37.81 17.97 37.92 18.37C38.08 18.97 38.62 19.36 39.21 19.36C39.32 19.36 39.44 19.34 39.56 19.31C39.72 19.26 39.87 19.18 39.99 19.09C40.12 19.19 40.27 19.27 40.43 19.31C40.55 19.34 40.67 19.36 40.78 19.36C41.37 19.36 41.91 18.97 42.07 18.37C42.18 17.97 42.3 17.57 42.43 17.17C42.67 16.48 42.3 15.72 41.6 15.48C40.96 15.26 40.29 15.58 39.99 16.17C39.7 15.58 39.03 15.26 38.39 15.48C37.69 15.72 37.32 16.48 37.56 17.17Z" fill="#D4C17F" fill-opacity="1.000000" fill-rule="nonzero"/>
		<path d="M47.78 8.2C48.09 8.2 48.4 8.1 48.66 7.88C48.97 7.6 49.3 7.34 49.63 7.08C50.21 6.63 50.32 5.8 49.87 5.21C49.42 4.63 48.58 4.52 48 4.97C47.63 5.26 47.26 5.55 46.91 5.86C46.35 6.35 46.29 7.19 46.78 7.75C47.04 8.05 47.41 8.2 47.78 8.2Z" fill="#D4C17F" fill-opacity="1.000000" fill-rule="nonzero"/>
		<path d="M48.82 17.54C48.52 17.93 48.25 18.33 47.99 18.74C47.59 19.36 47.78 20.19 48.4 20.58C48.62 20.72 48.87 20.79 49.11 20.79C49.56 20.79 49.99 20.57 50.24 20.16C50.46 19.81 50.7 19.47 50.95 19.14C51.39 18.55 51.27 17.72 50.68 17.27C50.1 16.83 49.26 16.95 48.82 17.54Z" fill="#D4C17F" fill-opacity="1.000000" fill-rule="nonzero"/>
		<path d="M61.3 10.69C60.8 10.73 60.32 10.78 59.84 10.86C59.11 10.98 58.62 11.67 58.74 12.4C58.85 13.05 59.41 13.51 60.06 13.51C60.13 13.51 60.2 13.51 60.27 13.5C60.68 13.43 61.09 13.38 61.5 13.35C62.24 13.29 62.79 12.65 62.73 11.91C62.67 11.18 62.05 10.63 61.3 10.69Z" fill="#D4C17F" fill-opacity="1.000000" fill-rule="nonzero"/>
		<path d="M66.23 2.92C66.65 2.98 67.06 3.06 67.47 3.15C67.56 3.17 67.66 3.18 67.75 3.18C68.37 3.18 68.92 2.76 69.06 2.13C69.21 1.41 68.76 0.7 68.04 0.55C67.58 0.44 67.12 0.36 66.65 0.28C65.92 0.16 65.24 0.66 65.12 1.39C65.01 2.12 65.5 2.8 66.23 2.92Z" fill="#D4C17F" fill-opacity="1.000000" fill-rule="nonzero"/>
		<path d="M68.51 11.65C68.05 11.48 67.58 11.34 67.11 11.21C66.4 11.03 65.67 11.45 65.48 12.16C65.29 12.87 65.72 13.6 66.43 13.79C66.83 13.9 67.22 14.02 67.61 14.16C67.76 14.21 67.91 14.24 68.06 14.24C68.61 14.24 69.12 13.9 69.32 13.35C69.57 12.66 69.2 11.9 68.51 11.65Z" fill="#D4C17F" fill-opacity="1.000000" fill-rule="nonzero"/>
		<path d="M62.12 21.32C61.38 21.35 60.82 21.98 60.85 22.71C60.89 23.45 61.47 24.01 62.25 23.98C62.66 23.96 63.08 23.97 63.49 24.01C63.54 24.02 63.58 24.02 63.63 24.02C64.3 24.02 64.88 23.51 64.95 22.82C65.03 22.09 64.49 21.43 63.76 21.36C63.22 21.3 62.66 21.29 62.12 21.32Z" fill="#D4C17F" fill-opacity="1.000000" fill-rule="nonzero"/>
		<path d="M77.68 8.87C77.94 9.16 78.3 9.3 78.66 9.3C78.98 9.3 79.3 9.19 79.56 8.95C80.1 8.46 80.14 7.61 79.65 7.07C79.49 6.9 79.32 6.72 79.16 6.56C78.64 6.03 77.8 6.02 77.27 6.54C76.75 7.05 76.74 7.9 77.25 8.42C77.4 8.57 77.54 8.72 77.68 8.87Z" fill="#D4C17F" fill-opacity="1.000000" fill-rule="nonzero"/>
		<path d="M57.33 50.64L41.33 50.64C40.59 50.64 40 51.23 40 51.97C40 52.7 40.59 53.3 41.33 53.3L57.33 53.3C61.07 53.3 64 50.37 64 46.64L64 43.97C64 43.23 63.4 42.64 62.66 42.64L17.33 42.64C16.59 42.64 16 43.23 16 43.97L16 46.64C16 50.37 18.92 53.3 22.66 53.3L34.66 53.3L34.66 59.97C34.66 60.7 35.26 61.3 36 61.3C36.73 61.3 37.33 60.7 37.33 59.97L37.33 51.97C37.33 51.23 36.73 50.64 36 50.64L22.66 50.64C20.42 50.64 18.66 48.88 18.66 46.64L18.66 45.3L61.33 45.3L61.33 46.64C61.33 48.88 59.57 50.64 57.33 50.64Z" fill="#D4C17F" fill-opacity="1.000000" fill-rule="nonzero"/>
		<path d="M70.64 31.4C70.65 31.58 70.66 31.78 70.66 31.97C70.66 32.7 71.26 33.3 71.99 33.3C72.73 33.3 73.33 32.7 73.33 31.97C73.33 31.71 73.32 31.46 73.3 31.21C73.25 30.47 72.62 29.92 71.88 29.97C71.14 30.02 70.59 30.66 70.64 31.4Z" fill="#D4C17F" fill-opacity="1.000000" fill-rule="nonzero"/>
		<path d="M67.83 24.08C67.34 24.63 67.39 25.47 67.94 25.96C68.25 26.23 68.54 26.53 68.8 26.84C69.07 27.16 69.45 27.32 69.83 27.32C70.13 27.32 70.43 27.22 70.68 27.02C71.25 26.54 71.33 25.7 70.85 25.14C70.51 24.72 70.12 24.32 69.71 23.96C69.16 23.47 68.31 23.52 67.83 24.08Z" fill="#D4C17F" fill-opacity="1.000000" fill-rule="nonzero"/>
		<path d="M41.33 30.56C41.33 29.82 40.73 29.23 40 29.23C39.26 29.23 38.66 29.82 38.66 30.56L38.66 32.04C38.66 32.78 39.26 33.38 40 33.38C40.73 33.38 41.33 32.78 41.33 32.04L41.33 30.56Z" fill="#D4C17F" fill-opacity="1.000000" fill-rule="nonzero"/>
		<path d="M40 36.64C39.26 36.64 38.66 37.23 38.66 37.97L38.66 38.64C38.66 39.37 39.26 39.97 40 39.97C40.73 39.97 41.33 39.37 41.33 38.64L41.33 37.97C41.33 37.23 40.73 36.64 40 36.64Z" fill="#D4C17F" fill-opacity="1.000000" fill-rule="nonzero"/>
		<path d="M45.33 38.64C45.33 39.37 45.92 39.97 46.66 39.97C47.4 39.97 47.99 39.37 47.99 38.64L47.99 37.97C47.99 37.23 47.4 36.64 46.66 36.64C45.92 36.64 45.33 37.23 45.33 37.97L45.33 38.64Z" fill="#D4C17F" fill-opacity="1.000000" fill-rule="nonzero"/>
		<path d="M41.33 23.97C41.33 23.76 41.33 23.55 41.34 23.34C41.35 22.77 41.01 22.28 40.51 22.08C40.46 22.06 40.4 22.06 40.35 22.04C40.25 22.01 40.15 21.97 40.04 21.97C40.03 21.97 40.02 21.97 40 21.97C40 21.97 40 21.97 40 21.97C39.99 21.97 39.99 21.97 39.99 21.97C39.97 21.97 39.96 21.97 39.95 21.97C39.84 21.97 39.74 22.01 39.64 22.04C39.59 22.06 39.53 22.06 39.48 22.08C38.98 22.28 38.64 22.77 38.65 23.34C38.66 23.55 38.66 23.76 38.66 23.97L38.66 24.64C38.66 25.37 39.26 25.97 40 25.97C40.73 25.97 41.33 25.37 41.33 24.64L41.33 23.97Z" fill="#D4C17F" fill-opacity="1.000000" fill-rule="nonzero"/>
		<path d="M32 38.64C32 39.37 32.59 39.97 33.33 39.97C34.07 39.97 34.66 39.37 34.66 38.64L34.66 37.97C34.66 37.23 34.07 36.64 33.33 36.64C32.59 36.64 32 37.23 32 37.97L32 38.64Z" fill="#D4C17F" fill-opacity="1.000000" fill-rule="nonzero"/>
		<path d="M33.33 33.86C34.07 33.86 34.66 33.26 34.66 32.53L34.66 31.17C34.66 30.44 34.07 29.84 33.33 29.84C32.59 29.84 32 30.44 32 31.17L32 32.53C32 33.26 32.59 33.86 33.33 33.86Z" fill="#D4C17F" fill-opacity="1.000000" fill-rule="nonzero"/>
		<path d="M28 38.64L28 37.97C28 37.23 27.4 36.64 26.66 36.64C25.92 36.64 25.33 37.23 25.33 37.97L25.33 38.64C25.33 39.37 25.92 39.97 26.66 39.97C27.4 39.97 28 39.37 28 38.64Z" fill="#D4C17F" fill-opacity="1.000000" fill-rule="nonzero"/>
		<path d="M9.31 27.02C9.56 27.22 9.86 27.32 10.16 27.32C10.54 27.32 10.92 27.16 11.19 26.84C11.45 26.53 11.74 26.23 12.05 25.96C12.6 25.47 12.65 24.63 12.16 24.08C11.68 23.52 10.84 23.47 10.28 23.96C9.87 24.32 9.48 24.72 9.13 25.14C8.66 25.7 8.74 26.54 9.31 27.02Z" fill="#D4C17F" fill-opacity="1.000000" fill-rule="nonzero"/>
		<path d="M73.33 63.97L45.33 63.97L45.33 57.3C45.33 56.57 44.73 55.97 44 55.97C43.26 55.97 42.66 56.57 42.66 57.3L42.66 65.3C42.66 66.04 43.26 66.64 44 66.64L72 66.64L72 73.3C72 75.51 70.2 77.3 68 77.3L12 77.3C9.79 77.3 8 75.51 8 73.3L8 66.64L38.77 66.64C39.51 66.64 40.11 66.04 40.11 65.3C40.11 64.57 39.51 63.97 38.77 63.97L6.66 63.97C5.92 63.97 5.33 64.57 5.33 65.3L5.33 73.3C5.33 76.98 8.32 79.97 12 79.97L68 79.97C71.67 79.97 74.66 76.98 74.66 73.3L74.66 65.3C74.66 64.57 74.07 63.97 73.33 63.97Z" fill="#D4C17F" fill-opacity="1.000000" fill-rule="nonzero"/>
		<path d="M32 70.64L32 73.3C32 74.04 32.59 74.64 33.33 74.64C34.07 74.64 34.66 74.04 34.66 73.3L34.66 70.64C34.66 69.9 34.07 69.3 33.33 69.3C32.59 69.3 32 69.9 32 70.64Z" fill="#D4C17F" fill-opacity="1.000000" fill-rule="nonzero"/>
		<path d="M1.39 25.97C1.37 25.97 1.36 25.97 1.34 25.97C0.63 25.97 0.03 26.54 0.01 27.26C0 27.49 0 27.73 0 27.97C0 28.7 0.59 29.3 1.33 29.3C2.07 29.3 2.66 28.7 2.66 27.97C2.66 27.76 2.67 27.56 2.67 27.35C2.7 26.61 2.12 26 1.39 25.97Z" fill="#D4C17F" fill-opacity="1.000000" fill-rule="nonzero"/>
		<path d="M7.15 17.41C7.45 17.12 7.76 16.85 8.08 16.58C8.65 16.12 8.73 15.28 8.27 14.71C7.8 14.14 6.96 14.05 6.39 14.52C6.01 14.83 5.65 15.15 5.3 15.49C4.77 16 4.75 16.85 5.26 17.38C5.52 17.65 5.87 17.78 6.22 17.78C6.56 17.78 6.89 17.66 7.15 17.41Z" fill="#D4C17F" fill-opacity="1.000000" fill-rule="nonzero"/>
		<path d="M3.62 19.6C2.97 19.27 2.16 19.53 1.83 20.19C1.62 20.63 1.41 21.07 1.23 21.53C0.96 22.21 1.29 22.99 1.97 23.26C2.14 23.33 2.3 23.36 2.47 23.36C3 23.36 3.5 23.04 3.71 22.52C3.86 22.13 4.03 21.76 4.22 21.39C4.55 20.73 4.28 19.93 3.62 19.6Z" fill="#D4C17F" fill-opacity="1.000000" fill-rule="nonzero"/>
		<path d="M6.02 5.56C6.25 5.56 6.48 5.5 6.69 5.38C7.05 5.17 7.42 4.98 7.79 4.79C8.45 4.47 8.72 3.67 8.4 3.01C8.07 2.35 7.27 2.08 6.61 2.4C6.19 2.61 5.77 2.83 5.36 3.07C4.72 3.44 4.5 4.25 4.87 4.89C5.12 5.32 5.56 5.56 6.02 5.56Z" fill="#D4C17F" fill-opacity="1.000000" fill-rule="nonzero"/>
		<path d="M18.66 70.64L18.66 73.3C18.66 74.04 19.26 74.64 20 74.64C20.73 74.64 21.33 74.04 21.33 73.3L21.33 70.64C21.33 69.9 20.73 69.3 20 69.3C19.26 69.3 18.66 69.9 18.66 70.64Z" fill="#D4C17F" fill-opacity="1.000000" fill-rule="nonzero"/>
		<path d="M78.02 23.26C78.7 22.99 79.03 22.21 78.76 21.53C78.58 21.07 78.37 20.63 78.16 20.19C77.83 19.53 77.03 19.27 76.37 19.6C75.71 19.93 75.44 20.73 75.77 21.39C75.96 21.76 76.13 22.13 76.28 22.52C76.49 23.04 76.99 23.36 77.52 23.36C77.69 23.36 77.85 23.33 78.02 23.26Z" fill="#D4C17F" fill-opacity="1.000000" fill-rule="nonzero"/>
		<path d="M79.98 27.26C79.96 26.52 79.3 25.93 78.6 25.97C77.87 26 77.29 26.61 77.32 27.35C77.32 27.56 77.33 27.76 77.33 27.97C77.33 28.7 77.92 29.3 78.66 29.3C79.4 29.3 79.99 28.7 79.99 27.97C79.99 27.73 79.99 27.49 79.98 27.26Z" fill="#D4C17F" fill-opacity="1.000000" fill-rule="nonzero"/>
		<path d="M74.63 3.07C74.22 2.83 73.8 2.61 73.38 2.4C72.72 2.08 71.92 2.35 71.59 3.01C71.27 3.67 71.54 4.47 72.2 4.79C72.57 4.98 72.94 5.17 73.3 5.38C73.51 5.5 73.74 5.56 73.96 5.56C74.43 5.56 74.87 5.32 75.12 4.89C75.49 4.25 75.27 3.44 74.63 3.07Z" fill="#D4C17F" fill-opacity="1.000000" fill-rule="nonzero"/>
		<path d="M61.33 73.3L61.33 70.64C61.33 69.9 60.73 69.3 60 69.3C59.26 69.3 58.66 69.9 58.66 70.64L58.66 73.3C58.66 74.04 59.26 74.64 60 74.64C60.73 74.64 61.33 74.04 61.33 73.3Z" fill="#D4C17F" fill-opacity="1.000000" fill-rule="nonzero"/>
		<path d="M48 73.3L48 70.64C48 69.9 47.4 69.3 46.66 69.3C45.92 69.3 45.33 69.9 45.33 70.64L45.33 73.3C45.33 74.04 45.92 74.64 46.66 74.64C47.4 74.64 48 74.04 48 73.3Z" fill="#D4C17F" fill-opacity="1.000000" fill-rule="nonzero"/>
		<path d="M73.6 14.52C73.03 14.05 72.19 14.14 71.72 14.71C71.26 15.28 71.34 16.12 71.91 16.58C72.23 16.85 72.54 17.12 72.84 17.41C73.1 17.66 73.43 17.78 73.77 17.78C74.12 17.78 74.46 17.65 74.73 17.38C75.24 16.85 75.22 16 74.69 15.49C74.34 15.15 73.98 14.83 73.6 14.52Z" fill="#D4C17F" fill-opacity="1.000000" fill-rule="nonzero"/>
		<path d="M8.11 29.97C7.35 29.92 6.74 30.47 6.69 31.21C6.67 31.46 6.66 31.71 6.66 31.97C6.66 32.7 7.26 33.3 8 33.3C8.73 33.3 9.33 32.7 9.33 31.97C9.33 31.78 9.34 31.58 9.35 31.4C9.4 30.66 8.85 30.02 8.11 29.97Z" fill="#D4C17F" fill-opacity="1.000000" fill-rule="nonzero"/>
		<path d="M26.41 29.44C25.68 29.54 25.17 30.2 25.26 30.94C25.31 31.27 25.33 31.62 25.33 31.97L25.33 32.2C25.33 32.94 25.92 33.53 26.66 33.53C27.4 33.53 27.99 32.94 27.99 32.2L27.99 31.97C27.99 31.5 27.97 31.04 27.91 30.59C27.81 29.86 27.15 29.34 26.41 29.44Z" fill="#D4C17F" fill-opacity="1.000000" fill-rule="nonzero"/>
		<path d="M24.9 4.02C25.29 4.17 25.68 4.33 26.06 4.5C26.24 4.58 26.42 4.62 26.61 4.62C27.12 4.62 27.6 4.32 27.82 3.83C28.13 3.16 27.82 2.37 27.15 2.07C26.72 1.87 26.29 1.69 25.85 1.52C25.16 1.27 24.39 1.61 24.13 2.3C23.87 2.99 24.21 3.76 24.9 4.02Z" fill="#D4C17F" fill-opacity="1.000000" fill-rule="nonzero"/>
		<path d="M24.39 15.11C24.75 15.31 25.1 15.52 25.44 15.75C25.67 15.9 25.93 15.98 26.18 15.98C26.61 15.98 27.04 15.77 27.29 15.38C27.7 14.77 27.54 13.94 26.93 13.53C26.52 13.26 26.1 13.01 25.67 12.77C25.03 12.42 24.22 12.65 23.86 13.3C23.51 13.94 23.74 14.75 24.39 15.11Z" fill="#D4C17F" fill-opacity="1.000000" fill-rule="nonzero"/>
		<path d="M1.33 9.3C1.69 9.3 2.05 9.16 2.31 8.87C2.45 8.72 2.59 8.57 2.74 8.42C3.25 7.9 3.24 7.05 2.71 6.54C2.19 6.02 1.35 6.03 0.83 6.56C0.67 6.72 0.5 6.9 0.34 7.07C-0.15 7.61 -0.11 8.46 0.43 8.95C0.69 9.19 1.01 9.3 1.33 9.3Z" fill="#D4C17F" fill-opacity="1.000000" fill-rule="nonzero"/>
		<path d="M22.29 25.69C22.61 25.95 22.92 26.23 23.2 26.53C23.46 26.81 23.82 26.96 24.17 26.96C24.5 26.96 24.82 26.84 25.08 26.6C25.62 26.1 25.65 25.26 25.15 24.72C24.78 24.32 24.38 23.94 23.95 23.6C23.37 23.14 22.53 23.24 22.07 23.82C21.61 24.39 21.71 25.23 22.29 25.69Z" fill="#D4C17F" fill-opacity="1.000000" fill-rule="nonzero"/>
		<path d="M29.75 20.16C30 20.57 30.44 20.79 30.88 20.79C31.12 20.79 31.37 20.72 31.59 20.58C32.21 20.19 32.4 19.36 32 18.74C31.74 18.33 31.47 17.93 31.17 17.54C30.73 16.95 29.9 16.83 29.31 17.27C28.72 17.72 28.6 18.55 29.04 19.14C29.29 19.47 29.53 19.81 29.75 20.16Z" fill="#D4C17F" fill-opacity="1.000000" fill-rule="nonzero"/>
		<path d="M30.36 7.08C30.7 7.34 31.02 7.6 31.34 7.88C31.59 8.1 31.9 8.2 32.21 8.2C32.58 8.2 32.95 8.05 33.22 7.75C33.7 7.19 33.64 6.35 33.08 5.86C32.73 5.55 32.36 5.26 31.99 4.97C31.41 4.52 30.57 4.63 30.12 5.21C29.67 5.8 29.78 6.63 30.36 7.08Z" fill="#D4C17F" fill-opacity="1.000000" fill-rule="nonzero"/>
		<path d="M12.24 3.18C12.33 3.18 12.43 3.17 12.52 3.15C12.93 3.06 13.34 2.98 13.76 2.92C14.49 2.8 14.98 2.12 14.87 1.39C14.75 0.66 14.07 0.16 13.34 0.28C12.87 0.36 12.41 0.44 11.95 0.55C11.23 0.7 10.78 1.41 10.94 2.13C11.07 2.76 11.62 3.18 12.24 3.18Z" fill="#D4C17F" fill-opacity="1.000000" fill-rule="nonzero"/>
		<path d="M18.79 2.68C19.21 2.71 19.63 2.75 20.04 2.81C20.1 2.81 20.15 2.82 20.21 2.82C20.87 2.82 21.44 2.32 21.53 1.65C21.62 0.92 21.1 0.25 20.37 0.16C19.91 0.1 19.44 0.06 18.97 0.02C18.25 -0.03 17.59 0.53 17.55 1.27C17.5 2 18.05 2.64 18.79 2.68Z" fill="#D4C17F" fill-opacity="1.000000" fill-rule="nonzero"/>
		<path d="M32.64 23.13C31.92 23.3 31.47 24.01 31.63 24.73C31.73 25.13 31.8 25.53 31.85 25.94C31.95 26.61 32.52 27.1 33.18 27.1C33.24 27.1 33.3 27.1 33.36 27.09C34.08 26.99 34.6 26.32 34.5 25.59C34.43 25.1 34.34 24.62 34.24 24.14C34.07 23.42 33.36 22.97 32.64 23.13Z" fill="#D4C17F" fill-opacity="1.000000" fill-rule="nonzero"/>
		<path d="M11.93 14.24C12.08 14.24 12.23 14.21 12.38 14.16C12.77 14.02 13.16 13.9 13.56 13.79C14.27 13.6 14.7 12.87 14.51 12.16C14.32 11.45 13.59 11.03 12.88 11.21C12.41 11.34 11.94 11.48 11.48 11.65C10.79 11.9 10.42 12.66 10.67 13.35C10.87 13.9 11.38 14.24 11.93 14.24Z" fill="#D4C17F" fill-opacity="1.000000" fill-rule="nonzero"/>
		<path d="M18.49 13.35C18.9 13.38 19.31 13.43 19.72 13.5C19.79 13.51 19.86 13.51 19.94 13.51C20.58 13.51 21.14 13.05 21.25 12.4C21.37 11.67 20.88 10.98 20.15 10.86C19.67 10.79 19.19 10.73 18.69 10.69C17.97 10.62 17.32 11.18 17.26 11.91C17.2 12.65 17.75 13.29 18.49 13.35Z" fill="#D4C17F" fill-opacity="1.000000" fill-rule="nonzero"/>
		<path d="M16.36 24.02C16.41 24.02 16.46 24.02 16.5 24.01C16.91 23.97 17.33 23.96 17.74 23.98C18.51 24.01 19.1 23.45 19.14 22.71C19.17 21.98 18.61 21.35 17.87 21.32C17.33 21.29 16.77 21.3 16.23 21.36C15.5 21.43 14.96 22.09 15.04 22.82C15.11 23.51 15.69 24.02 16.36 24.02Z" fill="#D4C17F" fill-opacity="1.000000" fill-rule="nonzero"/>
	</g>
</svg>
